<?xml version="1.0" encoding="UTF-8" standalone="no"?>
<svg
   width="54.850838mm"
   height="25.678677mm"
   viewBox="0 0 54.850838 25.678677"
   version="1.1"
   id="svg8"
   inkscape:version="1.3 (1:1.3+202307231459+0e150ed6c4)"
   sodipodi:docname="pepsj.svg"
   xmlns:inkscape="http://www.inkscape.org/namespaces/inkscape"
   xmlns:sodipodi="http://sodipodi.sourceforge.net/DTD/sodipodi-0.dtd"
   xmlns="http://www.w3.org/2000/svg"
   xmlns:svg="http://www.w3.org/2000/svg"
   xmlns:rdf="http://www.w3.org/1999/02/22-rdf-syntax-ns#"
   xmlns:cc="http://creativecommons.org/ns#"
   xmlns:dc="http://purl.org/dc/elements/1.1/"
   xmlns:ns4="http://www.iki.fi/pav/software/textext/">
  <defs
     id="defs2">
    <g
       id="id-681f3419-c24f-418a-a7ea-a56b53c6a1df">
      <symbol
         overflow="visible"
         id="id-942fe2d5-bff4-46e0-8b0f-07b526d320b6">
        <path
           style="stroke:none"
           d=""
           id="id-cd426259-1fb5-464c-b601-d4e5cf1a6401" />
      </symbol>
      <symbol
         overflow="visible"
         id="id-f7eef03d-efad-406e-a5ac-d9feec736dbc">
        <path
           style="stroke:none"
           d="m 1.578125,-7.125 c 0,-0.171875 0,-0.359375 -0.1875,-0.359375 -0.203125,0 -0.203125,0.1875 -0.203125,0.359375 v 9.265625 c 0,0.171875 0,0.359375 0.203125,0.359375 0.1875,0 0.1875,-0.1875 0.1875,-0.359375 z m 0,0"
           id="id-88061373-f5dd-4ec9-874b-8557582e7f09" />
      </symbol>
      <symbol
         overflow="visible"
         id="id-d6130408-ca2e-4643-bc9d-c88775bf32a9">
        <path
           style="stroke:none"
           d="M 2.71875,-2.328125 C 2.765625,-2.4375 2.765625,-2.46875 2.765625,-2.5 c 0,-0.015625 0,-0.046875 -0.046875,-0.15625 L 0.984375,-7.25 c -0.0625,-0.171875 -0.125,-0.234375 -0.234375,-0.234375 -0.109375,0 -0.203125,0.09375 -0.203125,0.203125 0,0.03125 0,0.046875 0.046875,0.15625 L 2.359375,-2.5 0.59375,2.109375 C 0.546875,2.21875 0.546875,2.25 0.546875,2.296875 0.546875,2.40625 0.640625,2.5 0.75,2.5 0.875,2.5 0.921875,2.390625 0.953125,2.296875 Z m 0,0"
           id="id-eb41bbf0-bc0a-4e3e-baa0-77d4497152d1" />
      </symbol>
      <symbol
         overflow="visible"
         id="id-d0498604-d42d-46d5-ad8d-dea3bf861941">
        <path
           style="stroke:none"
           d=""
           id="id-5050914c-3e1d-481f-b812-f2a813e82850" />
      </symbol>
      <symbol
         overflow="visible"
         id="id-186b866c-de79-4bd9-800d-267947508d4d">
        <path
           style="stroke:none"
           d="m 4.8125,-6.65625 c 0,-0.046875 0.015625,-0.109375 0.015625,-0.15625 0,-0.09375 -0.0625,-0.109375 -0.109375,-0.109375 -0.109375,0 -0.109375,0.03125 -0.15625,0.203125 L 2.90625,-0.125 c -0.75,-0.09375 -1.125,-0.46875 -1.125,-1.125 0,-0.203125 0,-0.453125 0.53125,-1.84375 0.046875,-0.125 0.109375,-0.296875 0.109375,-0.5 0,-0.4375 -0.3125,-0.8125 -0.8125,-0.8125 -0.953125,0 -1.3125,1.453125 -1.3125,1.53125 0,0.109375 0.09375,0.109375 0.109375,0.109375 0.109375,0 0.109375,-0.03125 0.15625,-0.1875 0.28125,-0.9375 0.671875,-1.234375 1.015625,-1.234375 0.078125,0 0.25,0 0.25,0.3125 0,0.265625 -0.109375,0.515625 -0.234375,0.859375 C 1.109375,-1.75 1.109375,-1.5 1.109375,-1.328125 1.109375,-0.375 1.890625,0.03125 2.84375,0.09375 2.765625,0.453125 2.765625,0.46875 2.625,1 2.609375,1.109375 2.40625,1.90625 2.40625,1.9375 c 0,0.015625 0,0.109375 0.109375,0.109375 0.03125,0 0.078125,0 0.09375,-0.046875 0.03125,-0.015625 0.09375,-0.265625 0.125,-0.40625 l 0.375,-1.484375 c 0.375,0 1.25,0 2.1875,-1.0625 0.40625,-0.46875 0.609375,-0.90625 0.71875,-1.203125 0.09375,-0.25 0.3125,-1.109375 0.3125,-1.546875 0,-0.5625 -0.265625,-0.703125 -0.4375,-0.703125 -0.25,0 -0.5,0.265625 -0.5,0.484375 0,0.125 0.0625,0.1875 0.15625,0.265625 0.109375,0.109375 0.359375,0.359375 0.359375,0.84375 0,0.640625 -0.515625,1.453125 -0.875,1.8125 -0.875,0.890625 -1.515625,0.890625 -1.875,0.890625 z m 0,0"
           id="id-b9377a86-77f1-4077-bdeb-142b1ea4845b" />
      </symbol>
      <symbol
         overflow="visible"
         id="id-a3a78cab-7277-424e-97cf-f12d3f29091d">
        <path
           style="stroke:none"
           d=""
           id="id-1355dccc-b0bd-4420-9808-e96b1baa22b1" />
      </symbol>
      <symbol
         overflow="visible"
         id="id-3e92337d-0e11-4f3d-a275-2a3188116888">
        <path
           style="stroke:none"
           d="m 6.84375,-3.265625 c 0.15625,0 0.34375,0 0.34375,-0.1875 C 7.1875,-3.65625 7,-3.65625 6.859375,-3.65625 h -5.96875 c -0.140625,0 -0.328125,0 -0.328125,0.203125 0,0.1875 0.1875,0.1875 0.328125,0.1875 z m 0.015625,1.9375 c 0.140625,0 0.328125,0 0.328125,-0.203125 0,-0.1875 -0.1875,-0.1875 -0.34375,-0.1875 H 0.890625 c -0.140625,0 -0.328125,0 -0.328125,0.1875 0,0.203125 0.1875,0.203125 0.328125,0.203125 z m 0,0"
           id="id-f36060e3-3237-4e2e-b640-24fb3c60fa3c" />
      </symbol>
    </g>
  </defs>
  <sodipodi:namedview
     id="base"
     pagecolor="#ffffff"
     bordercolor="#666666"
     borderopacity="1.0"
     inkscape:pageopacity="0.0"
     inkscape:pageshadow="2"
     inkscape:zoom="2.8"
     inkscape:cx="106.25"
     inkscape:cy="30.714286"
     inkscape:document-units="mm"
     inkscape:current-layer="layer1"
     inkscape:document-rotation="0"
     showgrid="true"
     inkscape:window-width="1848"
     inkscape:window-height="1136"
     inkscape:window-x="72"
     inkscape:window-y="27"
     inkscape:window-maximized="1"
     inkscape:showpageshadow="2"
     inkscape:pagecheckerboard="0"
     inkscape:deskcolor="#d1d1d1">
    <inkscape:grid
       type="xygrid"
       id="grid833"
       originx="-34.000001"
       originy="-87.908434"
       spacingy="1"
       spacingx="1"
       units="mm"
       visible="true" />
  </sodipodi:namedview>
  <metadata
     id="metadata5">
    <rdf:RDF>
      <cc:Work
         rdf:about="">
        <dc:format>image/svg+xml</dc:format>
        <dc:type
           rdf:resource="http://purl.org/dc/dcmitype/StillImage" />
      </cc:Work>
    </rdf:RDF>
  </metadata>
  <g
     inkscape:label="Layer 1"
     inkscape:groupmode="layer"
     id="layer1"
     transform="translate(-8.9958335,-23.259107)">
    <rect
       style="fill:#ffffff;stroke-width:1;stroke-miterlimit:3"
       id="rect30"
       width="54.850838"
       height="25.587107"
       x="8.9958334"
       y="23.350676" />
    <path
       style="fill:#000000;fill-rule:evenodd;stroke:#000000;stroke-width:0.264583px;stroke-linecap:butt;stroke-linejoin:miter;stroke-opacity:1"
       d="M 26.147762,46.895841 37.936697,29.673692"
       id="path27"
       sodipodi:nodetypes="cc" />
    <path
       style="fill:#000000;fill-rule:evenodd;stroke:#000000;stroke-width:0.264583px;stroke-linecap:butt;stroke-linejoin:miter;stroke-opacity:1"
       d="M 34.152732,46.68882 45.941667,29.466671"
       id="path28"
       sodipodi:nodetypes="cc" />
    <path
       style="fill:#000000;fill-rule:evenodd;stroke:#000000;stroke-width:0.264583px;stroke-linecap:butt;stroke-linejoin:miter;stroke-opacity:1"
       d="M 42.049984,46.895841 53.838919,29.673692"
       id="path29"
       sodipodi:nodetypes="cc" />
    <path
       style="fill:#000000;fill-rule:evenodd;stroke:#000000;stroke-width:0.264583px;stroke-linecap:butt;stroke-linejoin:miter;stroke-opacity:1"
       d="M 49.941071,46.821115 61.730006,29.598966"
       id="path30"
       sodipodi:nodetypes="cc" />
    <path
       style="fill:#000000;fill-rule:evenodd;stroke:#000000;stroke-width:0.264583px;stroke-linecap:butt;stroke-linejoin:miter;stroke-opacity:1"
       d="M 18.136629,46.821115 29.925564,29.598966"
       id="path26"
       sodipodi:nodetypes="cc" />
    <path
       style="fill:none;fill-rule:evenodd;stroke:#f6a800;stroke-width:0.264583px;stroke-linecap:round;stroke-linejoin:miter;stroke-opacity:1"
       d="M 41.989964,44.846882 V 40.878131"
       id="path865" />
    <rect
       style="fill:#00549f;stroke:#000000;stroke-width:0.264583;stroke-linecap:square;stroke-miterlimit:4;stroke-dasharray:none;stroke-opacity:0.979529"
       id="rect885"
       width="3.968749"
       height="3.9687498"
       x="40.005589"
       y="44.836742"
       rx="2.645833"
       ry="2.6458333" />
    <path
       style="fill:none;fill-rule:evenodd;stroke:#f6a800;stroke-width:0.264583px;stroke-linecap:round;stroke-linejoin:miter;stroke-opacity:1"
       d="M 34.038853,44.71459 V 40.745839"
       id="path1615" />
    <rect
       style="fill:#00549f;stroke:#000000;stroke-width:0.264583;stroke-linecap:square;stroke-miterlimit:4;stroke-dasharray:none;stroke-opacity:0.979529"
       id="rect1617"
       width="3.968749"
       height="3.9687498"
       x="32.054478"
       y="44.836742"
       rx="2.645833"
       ry="2.6458333" />
    <path
       style="fill:none;fill-rule:evenodd;stroke:#f6a800;stroke-width:0.264583px;stroke-linecap:round;stroke-linejoin:miter;stroke-opacity:1"
       d="M 26.08774,44.582298 V 40.613547"
       id="path1633" />
    <rect
       style="fill:#00549f;stroke:#000000;stroke-width:0.264583;stroke-linecap:square;stroke-miterlimit:4;stroke-dasharray:none;stroke-opacity:0.979529"
       id="rect1635"
       width="3.968749"
       height="3.9687498"
       x="24.103365"
       y="44.836742"
       rx="2.645833"
       ry="2.6458333" />
    <path
       style="fill:#000000;fill-rule:evenodd;stroke:#000000;stroke-width:0.264583px;stroke-linecap:butt;stroke-linejoin:miter;stroke-opacity:1"
       d="m 20.250505,46.821112 h 3.720567"
       id="path1639" />
    <path
       style="fill:none;fill-rule:evenodd;stroke:#f6a800;stroke-width:0.264583px;stroke-linecap:round;stroke-linejoin:miter;stroke-opacity:1"
       d="M 18.136629,44.953403 V 40.984652"
       id="path1651" />
    <rect
       style="fill:#00549f;stroke:#000000;stroke-width:0.264583;stroke-linecap:square;stroke-miterlimit:4;stroke-dasharray:none;stroke-opacity:0.979529"
       id="rect1653"
       width="3.968749"
       height="3.9687498"
       x="16.152254"
       y="44.836742"
       rx="2.645833"
       ry="2.6458333" />
    <path
       style="fill:none;fill-rule:evenodd;stroke:#f6a800;stroke-width:0.264583px;stroke-linecap:round;stroke-linejoin:miter;stroke-opacity:1"
       d="M 49.941077,44.819549 V 40.850798"
       id="path1669" />
    <rect
       style="fill:#00549f;stroke:#000000;stroke-width:0.264583;stroke-linecap:square;stroke-miterlimit:4;stroke-dasharray:none;stroke-opacity:0.979529"
       id="rect1671"
       width="3.968749"
       height="3.9687498"
       x="47.956699"
       y="44.836742"
       rx="2.645833"
       ry="2.6458333" />
    <path
       style="fill:#000000;fill-rule:evenodd;stroke:#000000;stroke-width:0.264583px;stroke-linecap:butt;stroke-linejoin:miter;stroke-opacity:1"
       d="m 28.201619,46.821112 h 3.720567"
       id="path1725" />
    <path
       style="fill:#000000;fill-rule:evenodd;stroke:#000000;stroke-width:0.264583px;stroke-linecap:butt;stroke-linejoin:miter;stroke-opacity:1"
       d="M 44.103843,46.821112 H 47.82441"
       id="path1727" />
    <path
       style="fill:#000000;fill-rule:evenodd;stroke:#000000;stroke-width:0.264583px;stroke-linecap:butt;stroke-linejoin:miter;stroke-opacity:1"
       d="m 36.152732,46.821112 h 3.720567"
       id="path1729" />
    <g
       transform="matrix(0.232446,0,0,0.232446,8.9959497,36.237861)"
       ns4:version="1.9.0"
       ns4:texconverter="pdflatex"
       ns4:pdfconverter="inkscape"
       ns4:text="$\\lvert \\psi\\rangle=$"
       ns4:preamble="/home/emonts/.config/inkscape/extensions/textext/default_packages.tex"
       ns4:scale="0.6589002715588841"
       ns4:alignment="middle center"
       ns4:stroke-to-path="0"
       ns4:inkscapeversion="1.3"
       id="g500"
       ns4:jacobian_sqrt="0.232446">
      <defs
         id="id-1eb66fde-481f-4d59-88c9-f9837ff69b5f">
        <g
           id="g7">
          <symbol
             overflow="visible"
             id="symbol1">
            <path
               style="stroke:none"
               d=""
               id="path1" />
          </symbol>
          <symbol
             overflow="visible"
             id="symbol2">
            <path
               style="stroke:none"
               d="m 1.578125,-7.125 c 0,-0.171875 0,-0.359375 -0.1875,-0.359375 -0.203125,0 -0.203125,0.1875 -0.203125,0.359375 v 9.265625 c 0,0.171875 0,0.359375 0.203125,0.359375 0.1875,0 0.1875,-0.1875 0.1875,-0.359375 z m 0,0"
               id="path2" />
          </symbol>
          <symbol
             overflow="visible"
             id="symbol3">
            <path
               style="stroke:none"
               d="M 2.71875,-2.328125 C 2.765625,-2.4375 2.765625,-2.46875 2.765625,-2.5 c 0,-0.015625 0,-0.046875 -0.046875,-0.15625 L 0.984375,-7.25 c -0.0625,-0.171875 -0.125,-0.234375 -0.234375,-0.234375 -0.109375,0 -0.203125,0.09375 -0.203125,0.203125 0,0.03125 0,0.046875 0.046875,0.15625 L 2.359375,-2.5 0.59375,2.109375 C 0.546875,2.21875 0.546875,2.25 0.546875,2.296875 0.546875,2.40625 0.640625,2.5 0.75,2.5 0.875,2.5 0.921875,2.390625 0.953125,2.296875 Z m 0,0"
               id="path3" />
          </symbol>
          <symbol
             overflow="visible"
             id="symbol4">
            <path
               style="stroke:none"
               d=""
               id="path4" />
          </symbol>
          <symbol
             overflow="visible"
             id="symbol5">
            <path
               style="stroke:none"
               d="m 4.8125,-6.65625 c 0,-0.046875 0.015625,-0.109375 0.015625,-0.15625 0,-0.09375 -0.0625,-0.109375 -0.109375,-0.109375 -0.109375,0 -0.109375,0.03125 -0.15625,0.203125 L 2.90625,-0.125 c -0.75,-0.09375 -1.125,-0.46875 -1.125,-1.125 0,-0.203125 0,-0.453125 0.53125,-1.84375 0.046875,-0.125 0.109375,-0.296875 0.109375,-0.5 0,-0.4375 -0.3125,-0.8125 -0.8125,-0.8125 -0.953125,0 -1.3125,1.453125 -1.3125,1.53125 0,0.109375 0.09375,0.109375 0.109375,0.109375 0.109375,0 0.109375,-0.03125 0.15625,-0.1875 0.28125,-0.9375 0.671875,-1.234375 1.015625,-1.234375 0.078125,0 0.25,0 0.25,0.3125 0,0.265625 -0.109375,0.515625 -0.234375,0.859375 C 1.109375,-1.75 1.109375,-1.5 1.109375,-1.328125 1.109375,-0.375 1.890625,0.03125 2.84375,0.09375 2.765625,0.453125 2.765625,0.46875 2.625,1 2.609375,1.109375 2.40625,1.90625 2.40625,1.9375 c 0,0.015625 0,0.109375 0.109375,0.109375 0.03125,0 0.078125,0 0.09375,-0.046875 0.03125,-0.015625 0.09375,-0.265625 0.125,-0.40625 l 0.375,-1.484375 c 0.375,0 1.25,0 2.1875,-1.0625 0.40625,-0.46875 0.609375,-0.90625 0.71875,-1.203125 0.09375,-0.25 0.3125,-1.109375 0.3125,-1.546875 0,-0.5625 -0.265625,-0.703125 -0.4375,-0.703125 -0.25,0 -0.5,0.265625 -0.5,0.484375 0,0.125 0.0625,0.1875 0.15625,0.265625 0.109375,0.109375 0.359375,0.359375 0.359375,0.84375 0,0.640625 -0.515625,1.453125 -0.875,1.8125 -0.875,0.890625 -1.515625,0.890625 -1.875,0.890625 z m 0,0"
               id="path5" />
          </symbol>
          <symbol
             overflow="visible"
             id="symbol6">
            <path
               style="stroke:none"
               d=""
               id="path6" />
          </symbol>
          <symbol
             overflow="visible"
             id="symbol7">
            <path
               style="stroke:none"
               d="m 6.84375,-3.265625 c 0.15625,0 0.34375,0 0.34375,-0.1875 C 7.1875,-3.65625 7,-3.65625 6.859375,-3.65625 h -5.96875 c -0.140625,0 -0.328125,0 -0.328125,0.203125 0,0.1875 0.1875,0.1875 0.328125,0.1875 z m 0.015625,1.9375 c 0.140625,0 0.328125,0 0.328125,-0.203125 0,-0.1875 -0.1875,-0.1875 -0.34375,-0.1875 H 0.890625 c -0.140625,0 -0.328125,0 -0.328125,0.1875 0,0.203125 0.1875,0.203125 0.328125,0.203125 z m 0,0"
               id="path7" />
          </symbol>
        </g>
      </defs>
      <g
         id="id-c37a8b70-4af1-4849-8428-9961b0dac596"
         transform="translate(-149.9,-127.281)">
        <g
           style="fill:#000000;fill-opacity:1"
           id="id-275cd03a-2ac3-44ba-8135-64a48e8daf0e">
          <g
             transform="translate(148.712,134.765)"
             id="g8863">
            <path
               style="stroke:none"
               d="m 1.578125,-7.125 c 0,-0.171875 0,-0.359375 -0.1875,-0.359375 -0.203125,0 -0.203125,0.1875 -0.203125,0.359375 v 9.265625 c 0,0.171875 0,0.359375 0.203125,0.359375 0.1875,0 0.1875,-0.1875 0.1875,-0.359375 z m 0,0"
               id="id-7f4c3c60-6f50-4874-87a0-1facdfd1d61d" />
          </g>
        </g>
        <g
           style="fill:#000000;fill-opacity:1"
           id="id-d1ea71ac-c232-44e4-85d6-101a4839853a">
          <g
             transform="translate(151.48,134.765)"
             id="g4369">
            <path
               style="stroke:none"
               d="m 4.8125,-6.65625 c 0,-0.046875 0.015625,-0.109375 0.015625,-0.15625 0,-0.09375 -0.0625,-0.109375 -0.109375,-0.109375 -0.109375,0 -0.109375,0.03125 -0.15625,0.203125 L 2.90625,-0.125 c -0.75,-0.09375 -1.125,-0.46875 -1.125,-1.125 0,-0.203125 0,-0.453125 0.53125,-1.84375 0.046875,-0.125 0.109375,-0.296875 0.109375,-0.5 0,-0.4375 -0.3125,-0.8125 -0.8125,-0.8125 -0.953125,0 -1.3125,1.453125 -1.3125,1.53125 0,0.109375 0.09375,0.109375 0.109375,0.109375 0.109375,0 0.109375,-0.03125 0.15625,-0.1875 0.28125,-0.9375 0.671875,-1.234375 1.015625,-1.234375 0.078125,0 0.25,0 0.25,0.3125 0,0.265625 -0.109375,0.515625 -0.234375,0.859375 C 1.109375,-1.75 1.109375,-1.5 1.109375,-1.328125 1.109375,-0.375 1.890625,0.03125 2.84375,0.09375 2.765625,0.453125 2.765625,0.46875 2.625,1 2.609375,1.109375 2.40625,1.90625 2.40625,1.9375 c 0,0.015625 0,0.109375 0.109375,0.109375 0.03125,0 0.078125,0 0.09375,-0.046875 0.03125,-0.015625 0.09375,-0.265625 0.125,-0.40625 l 0.375,-1.484375 c 0.375,0 1.25,0 2.1875,-1.0625 0.40625,-0.46875 0.609375,-0.90625 0.71875,-1.203125 0.09375,-0.25 0.3125,-1.109375 0.3125,-1.546875 0,-0.5625 -0.265625,-0.703125 -0.4375,-0.703125 -0.25,0 -0.5,0.265625 -0.5,0.484375 0,0.125 0.0625,0.1875 0.15625,0.265625 0.109375,0.109375 0.359375,0.359375 0.359375,0.84375 0,0.640625 -0.515625,1.453125 -0.875,1.8125 -0.875,0.890625 -1.515625,0.890625 -1.875,0.890625 z m 0,0"
               id="id-fd5d0696-ab49-402d-a104-f6c94a247d85" />
          </g>
        </g>
        <g
           style="fill:#000000;fill-opacity:1"
           id="id-22e73153-649a-4238-9dc0-e8db0b2f8c7b">
          <g
             transform="translate(158.327,134.765)"
             id="g877">
            <path
               style="stroke:none"
               d="M 2.71875,-2.328125 C 2.765625,-2.4375 2.765625,-2.46875 2.765625,-2.5 c 0,-0.015625 0,-0.046875 -0.046875,-0.15625 L 0.984375,-7.25 c -0.0625,-0.171875 -0.125,-0.234375 -0.234375,-0.234375 -0.109375,0 -0.203125,0.09375 -0.203125,0.203125 0,0.03125 0,0.046875 0.046875,0.15625 L 2.359375,-2.5 0.59375,2.109375 C 0.546875,2.21875 0.546875,2.25 0.546875,2.296875 0.546875,2.40625 0.640625,2.5 0.75,2.5 0.875,2.5 0.921875,2.390625 0.953125,2.296875 Z m 0,0"
               id="id-5f9f4865-7449-48cb-9e30-77692b563692" />
          </g>
        </g>
        <g
           style="fill:#000000;fill-opacity:1"
           id="id-1bba3d3f-6f6e-4c4e-ad6e-33ad00513748">
          <g
             transform="translate(164.968,134.765)"
             id="g120">
            <path
               style="stroke:none"
               d="m 6.84375,-3.265625 c 0.15625,0 0.34375,0 0.34375,-0.1875 C 7.1875,-3.65625 7,-3.65625 6.859375,-3.65625 h -5.96875 c -0.140625,0 -0.328125,0 -0.328125,0.203125 0,0.1875 0.1875,0.1875 0.328125,0.1875 z m 0.015625,1.9375 c 0.140625,0 0.328125,0 0.328125,-0.203125 0,-0.1875 -0.1875,-0.1875 -0.34375,-0.1875 H 0.890625 c -0.140625,0 -0.328125,0 -0.328125,0.1875 0,0.203125 0.1875,0.203125 0.328125,0.203125 z m 0,0"
               id="id-9cda566f-576c-49db-8193-1316f53b2725" />
          </g>
        </g>
      </g>
    </g>
    <path
       style="fill:none;fill-rule:evenodd;stroke:#f6a800;stroke-width:0.264583px;stroke-linecap:round;stroke-linejoin:miter;stroke-opacity:1"
       d="M 47.421945,36.492439 V 32.523688"
       id="path8" />
    <rect
       style="fill:#00549f;stroke:#000000;stroke-width:0.264583;stroke-linecap:square;stroke-miterlimit:4;stroke-dasharray:none;stroke-opacity:0.979529"
       id="rect8"
       width="3.968749"
       height="3.9687498"
       x="45.437569"
       y="36.4823"
       rx="2.645833"
       ry="2.6458333" />
    <path
       style="fill:none;fill-rule:evenodd;stroke:#f6a800;stroke-width:0.264583px;stroke-linecap:round;stroke-linejoin:miter;stroke-opacity:1"
       d="M 39.470834,36.360147 V 32.391396"
       id="path9" />
    <rect
       style="fill:#00549f;stroke:#000000;stroke-width:0.264583;stroke-linecap:square;stroke-miterlimit:4;stroke-dasharray:none;stroke-opacity:0.979529"
       id="rect9"
       width="3.968749"
       height="3.9687498"
       x="37.486458"
       y="36.4823"
       rx="2.645833"
       ry="2.6458333" />
    <path
       style="fill:none;fill-rule:evenodd;stroke:#f6a800;stroke-width:0.264583px;stroke-linecap:round;stroke-linejoin:miter;stroke-opacity:1"
       d="M 31.519721,36.227855 V 32.259104"
       id="path10" />
    <rect
       style="fill:#00549f;stroke:#000000;stroke-width:0.264583;stroke-linecap:square;stroke-miterlimit:4;stroke-dasharray:none;stroke-opacity:0.979529"
       id="rect10"
       width="3.968749"
       height="3.9687498"
       x="29.535345"
       y="36.4823"
       rx="2.645833"
       ry="2.6458333" />
    <path
       style="fill:#000000;fill-rule:evenodd;stroke:#000000;stroke-width:0.264583px;stroke-linecap:butt;stroke-linejoin:miter;stroke-opacity:1"
       d="m 25.682486,38.466669 h 3.720567"
       id="path11" />
    <path
       style="fill:none;fill-rule:evenodd;stroke:#f6a800;stroke-width:0.264583px;stroke-linecap:round;stroke-linejoin:miter;stroke-opacity:1"
       d="M 23.56861,36.59896 V 32.630209"
       id="path12" />
    <rect
       style="fill:#00549f;stroke:#000000;stroke-width:0.264583;stroke-linecap:square;stroke-miterlimit:4;stroke-dasharray:none;stroke-opacity:0.979529"
       id="rect12"
       width="3.968749"
       height="3.9687498"
       x="21.584234"
       y="36.4823"
       rx="2.645833"
       ry="2.6458333" />
    <path
       style="fill:none;fill-rule:evenodd;stroke:#f6a800;stroke-width:0.264583px;stroke-linecap:round;stroke-linejoin:miter;stroke-opacity:1"
       d="M 55.373058,36.465106 V 32.496355"
       id="path13" />
    <rect
       style="fill:#00549f;stroke:#000000;stroke-width:0.264583;stroke-linecap:square;stroke-miterlimit:4;stroke-dasharray:none;stroke-opacity:0.979529"
       id="rect13"
       width="3.968749"
       height="3.9687498"
       x="53.38868"
       y="36.4823"
       rx="2.645833"
       ry="2.6458333" />
    <path
       style="fill:#000000;fill-rule:evenodd;stroke:#000000;stroke-width:0.264583px;stroke-linecap:butt;stroke-linejoin:miter;stroke-opacity:1"
       d="m 33.6336,38.466669 h 3.720567"
       id="path14" />
    <path
       style="fill:#000000;fill-rule:evenodd;stroke:#000000;stroke-width:0.264583px;stroke-linecap:butt;stroke-linejoin:miter;stroke-opacity:1"
       d="m 49.535824,38.466669 h 3.720567"
       id="path15" />
    <path
       style="fill:#000000;fill-rule:evenodd;stroke:#000000;stroke-width:0.264583px;stroke-linecap:butt;stroke-linejoin:miter;stroke-opacity:1"
       d="M 41.584713,38.466669 H 45.30528"
       id="path16" />
    <path
       style="fill:none;fill-rule:evenodd;stroke:#f6a800;stroke-width:0.264583px;stroke-linecap:round;stroke-linejoin:miter;stroke-opacity:1"
       d="M 53.778899,27.624733 V 23.655982"
       id="path17" />
    <rect
       style="fill:#00549f;stroke:#000000;stroke-width:0.264583;stroke-linecap:square;stroke-miterlimit:4;stroke-dasharray:none;stroke-opacity:0.979529"
       id="rect17"
       width="3.968749"
       height="3.9687498"
       x="51.794521"
       y="27.614594"
       rx="2.645833"
       ry="2.6458333" />
    <path
       style="fill:none;fill-rule:evenodd;stroke:#f6a800;stroke-width:0.264583px;stroke-linecap:round;stroke-linejoin:miter;stroke-opacity:1"
       d="M 45.827788,27.492441 V 23.52369"
       id="path18" />
    <rect
       style="fill:#00549f;stroke:#000000;stroke-width:0.264583;stroke-linecap:square;stroke-miterlimit:4;stroke-dasharray:none;stroke-opacity:0.979529"
       id="rect18"
       width="3.968749"
       height="3.9687498"
       x="43.84341"
       y="27.614594"
       rx="2.645833"
       ry="2.6458333" />
    <path
       style="fill:none;fill-rule:evenodd;stroke:#f6a800;stroke-width:0.264583px;stroke-linecap:round;stroke-linejoin:miter;stroke-opacity:1"
       d="M 37.876675,27.360149 V 23.391398"
       id="path19" />
    <rect
       style="fill:#00549f;stroke:#000000;stroke-width:0.264583;stroke-linecap:square;stroke-miterlimit:4;stroke-dasharray:none;stroke-opacity:0.979529"
       id="rect19"
       width="3.968749"
       height="3.9687498"
       x="35.8923"
       y="27.614594"
       rx="2.645833"
       ry="2.6458333" />
    <path
       style="fill:#000000;fill-rule:evenodd;stroke:#000000;stroke-width:0.264583px;stroke-linecap:butt;stroke-linejoin:miter;stroke-opacity:1"
       d="m 32.03944,29.598963 h 3.720567"
       id="path20" />
    <path
       style="fill:none;fill-rule:evenodd;stroke:#f6a800;stroke-width:0.264583px;stroke-linecap:round;stroke-linejoin:miter;stroke-opacity:1"
       d="M 29.925564,27.731254 V 23.762503"
       id="path21" />
    <rect
       style="fill:#00549f;stroke:#000000;stroke-width:0.264583;stroke-linecap:square;stroke-miterlimit:4;stroke-dasharray:none;stroke-opacity:0.979529"
       id="rect21"
       width="3.968749"
       height="3.9687498"
       x="27.941189"
       y="27.614594"
       rx="2.645833"
       ry="2.6458333" />
    <path
       style="fill:none;fill-rule:evenodd;stroke:#f6a800;stroke-width:0.264583px;stroke-linecap:round;stroke-linejoin:miter;stroke-opacity:1"
       d="M 61.730012,27.5974 V 23.628649"
       id="path22" />
    <rect
       style="fill:#00549f;stroke:#000000;stroke-width:0.264583;stroke-linecap:square;stroke-miterlimit:4;stroke-dasharray:none;stroke-opacity:0.979529"
       id="rect22"
       width="3.968749"
       height="3.9687498"
       x="59.745632"
       y="27.614594"
       rx="2.645833"
       ry="2.6458333" />
    <path
       style="fill:#000000;fill-rule:evenodd;stroke:#000000;stroke-width:0.264583px;stroke-linecap:butt;stroke-linejoin:miter;stroke-opacity:1"
       d="m 39.990554,29.598963 h 3.720567"
       id="path23" />
    <path
       style="fill:#000000;fill-rule:evenodd;stroke:#000000;stroke-width:0.264583px;stroke-linecap:butt;stroke-linejoin:miter;stroke-opacity:1"
       d="m 55.892778,29.598963 h 3.720567"
       id="path24" />
    <path
       style="fill:#000000;fill-rule:evenodd;stroke:#000000;stroke-width:0.264583px;stroke-linecap:butt;stroke-linejoin:miter;stroke-opacity:1"
       d="m 47.941667,29.598963 h 3.720567"
       id="path25" />
  </g>
</svg>
